<?xml version="1.0" encoding="UTF-8" standalone="no"?>
<!-- Created with Inkscape (http://www.inkscape.org/) -->

<svg
   version="1.1"
   id="svg1"
   width="534.78174"
   height="495.36353"
   viewBox="0 0 534.78174 495.36353"
   xmlns="http://www.w3.org/2000/svg">
  <defs
     id="defs1" />
  <g
     id="g1"
     transform="translate(-432.58355,-363.02971)">
    <path
       style="fill:#000000"
       d="m 588.61197,857.03736 c -0.47166,-0.7631 -1.95658,-1.0387 -3.29982,-0.6124 -1.34323,0.4263 -2.8342,0.141 -3.31325,-0.6342 -0.47906,-0.7751 -1.38809,-1.0897 -2.02008,-0.6991 -0.63199,0.3906 -1.53199,0.091 -2,-0.6667 -0.46801,-0.7572 -1.40947,-1.0316 -2.09213,-0.6097 -0.68266,0.4219 -1.2412,0.096 -1.2412,-0.7236 0,-0.8199 -0.63992,-1.0952 -1.42205,-0.6119 -0.78213,0.4834 -2.32662,-0.2312 -3.43221,-1.5879 -1.154,-1.4162 -1.64199,-1.615 -1.14574,-0.4669 0.47543,1.1 -0.0801,0.8353 -1.23446,-0.5882 -1.15438,-1.4234 -2.09888,-2.0588 -2.09888,-1.4118 0,0.647 -0.94449,0.012 -2.09887,-1.4118 -1.15439,-1.4235 -1.69444,-1.6882 -1.20012,-0.5882 0.49432,1.1 -1.33031,-0.4 -4.05473,-3.3333 -2.72442,-2.9333 -4.13437,-4.1333 -3.13322,-2.6667 1.6686,2.4445 1.62707,2.5152 -0.49838,0.8489 -1.27526,-0.9997 -2.00614,-2.3234 -1.62418,-2.9414 0.38196,-0.618 -0.81949,-2.1157 -2.66989,-3.3281 -1.85041,-1.2124 -3.0315,-2.743 -2.62465,-3.4013 0.40685,-0.6583 -0.19485,-1.5555 -1.33712,-1.9939 -1.14227,-0.4383 -1.74489,-1.3341 -1.33916,-1.9906 0.40574,-0.6565 0.17508,-1.1936 -0.51256,-1.1936 -1.06523,0 -4.48983,-6.5445 -5.05836,-9.6666 -0.10015,-0.55 -0.33209,-1.3 -0.51542,-1.6667 -0.18334,-0.3667 -0.48334,-1.2667 -0.66667,-2 -0.18333,-0.7333 -0.4857,-1.4833 -0.67193,-1.6667 -0.81856,-0.8058 -1.55906,-9.0248 -1.53164,-17 0.0427,-12.4333 0.31998,-14.6666 1.8206,-14.6666 0.73422,0 0.99695,-0.8808 0.58385,-1.9573 -0.41309,-1.0766 -0.1675,-2.318 0.54577,-2.7588 0.71327,-0.4409 0.95165,-1.3601 0.52974,-2.0427 -0.4219,-0.6827 -0.0963,-1.2412 0.72361,-1.2412 0.81989,0 1.11989,-0.6 0.66667,-1.3334 -0.45323,-0.7333 -0.15323,-1.3333 0.66666,-1.3333 0.81989,0 1.11989,-0.6 0.66667,-1.3333 -0.45322,-0.73339 -0.15322,-1.33339 0.66667,-1.33339 0.81989,0 1.11989,-0.6 0.66666,-1.33333 -0.45322,-0.73333 -0.15322,-1.33333 0.66667,-1.33333 0.81989,0 1.15875,-0.53713 0.75301,-1.19362 -0.40573,-0.65649 0.16443,-1.5398 1.26702,-1.9629 1.10258,-0.42311 1.84914,-1.24971 1.659,-1.83691 -0.43113,-1.33147 12.60515,-14.2567 14.02474,-13.90526 0.5704,0.14122 1.38327,-0.64537 1.80638,-1.74795 0.4231,-1.10259 1.30641,-1.67275 1.9629,-1.26702 0.65649,0.40574 1.19362,0.14272 1.19362,-0.58447 0,-1.32596 5.12435,-3.59486 7,-3.09937 0.55,0.14529 1,-0.37125 1,-1.14786 0,-0.77661 0.55854,-1.06682 1.2412,-0.64492 0.68266,0.42191 1.60188,0.18353 2.0427,-0.52974 0.44082,-0.71327 1.62159,-0.98215 2.62393,-0.59752 1.00234,0.38463 2.18372,0.11476 2.62529,-0.59973 0.44158,-0.71448 1.93455,-1.00311 3.31773,-0.6414 1.38317,0.36171 2.91798,0.005 3.41069,-0.79184 1.16358,-1.88271 14.97571,-1.88966 16.13856,-0.008 0.48995,0.79275 2.32536,1.08132 4.07869,0.64126 1.94794,-0.4889 3.18787,-0.21614 3.18787,0.70128 0,0.82577 0.9,1.15603 2,0.73392 1.1,-0.42211 2,-0.12211 2,0.66666 0,0.78878 0.9,1.08878 2,0.66667 1.1,-0.42211 2,-0.15089 2,0.60271 0,0.75359 0.6,0.99935 1.33334,0.54613 0.73333,-0.45335 1.33333,-0.15335 1.33333,0.66654 0,0.81989 0.6,1.11989 1.33333,0.66667 0.73334,-0.45322 1.33334,-0.15322 1.33334,0.66667 0,0.81989 0.6,1.11989 1.33333,0.66666 0.73333,-0.45322 1.33333,-0.15322 1.33333,0.66667 0,0.81989 0.56313,1.14268 1.25139,0.71731 0.68826,-0.42537 1.87002,0.28922 2.62612,1.58798 0.75611,1.29876 1.39298,1.86596 1.41528,1.26045 0.0223,-0.60551 4.62248,3.59449 10.22262,9.33333 5.60013,5.73885 9.10803,8.93426 7.79533,7.10093 -1.31271,-1.83333 -0.0491,-0.93333 2.80801,2 2.85712,2.93333 5.62339,5.33332 6.14728,5.33332 0.52388,0 1.92284,1.2 3.10879,2.6667 1.18595,1.4667 1.75971,1.7667 1.27502,0.6667 -0.48468,-1.1 0.42289,-0.5 2.01683,1.3333 1.59394,1.8333 2.50151,2.4333 2.01683,1.3333 -0.58253,-1.322 -0.23808,-1.2161 1.01613,0.3126 1.04356,1.272 2.28805,1.922 2.76554,1.4445 0.47749,-0.4775 0.86817,-0.187 0.86817,0.6455 0,0.8326 0.9,1.1684 2,0.7463 1.1,-0.4222 2,-0.1033 2,0.7085 0,0.8118 0.45,1.4049 1,1.3181 0.55,-0.087 1.3,-0.037 1.66666,0.1111 5.35745,2.1617 23.87259,3.1457 25.99821,1.3816 1.03674,-0.8604 2.53755,-1.1611 3.33513,-0.6682 0.79758,0.493 2.32386,0.1711 3.39174,-0.7151 1.06787,-0.8863 1.95078,-1.0879 1.96201,-0.4481 0.0112,0.6398 0.46123,0.551 1,-0.1973 1.06975,-1.4857 7.07635,-4.371 8.58885,-4.1257 0.51843,0.084 1.84935,-1.0471 2.9576,-2.5138 1.10824,-1.4666 2.03407,-2.1502 2.05739,-1.5189 0.0233,0.6312 1.28812,-0.2688 2.81066,-2 1.52253,-1.73128 2.30266,-2.24775 1.7336,-1.1477 -0.56906,1.1 3.73523,-2.83802 9.56508,-8.75109 5.82985,-5.91306 8.19973,-7.99079 5.2664,-4.61718 -3.73018,4.29007 -2.9286,3.72697 2.66667,-1.87331 4.4,-4.40393 8.46669,-7.87064 9.0371,-7.70378 0.5704,0.16686 1.38327,-0.59875 1.80638,-1.70133 0.4231,-1.10259 1.30641,-1.67275 1.9629,-1.26702 0.65649,0.40574 1.19362,0.17508 1.19362,-0.51256 0,-1.1156 7.29984,-4.85254 9.55555,-4.89169 0.48889,-0.008 1.29755,-0.42409 1.79702,-0.92356 0.49948,-0.49947 1.74948,-0.58528 2.77778,-0.19068 1.02831,0.3946 1.86965,0.0418 1.86965,-0.78394 0,-0.91742 1.23993,-1.19018 3.18787,-0.70128 1.75333,0.44006 3.58874,0.15149 4.07869,-0.64126 1.14072,-1.84573 14.96427,-1.89193 16.10029,-0.0538 0.47166,0.76316 1.95658,1.03875 3.29981,0.61243 1.34324,-0.42633 2.85344,-0.10983 3.35599,0.70333 0.50256,0.81315 1.75306,1.15639 2.77888,0.76274 1.02582,-0.39364 1.86513,-0.0703 1.86513,0.71842 0,0.78878 0.9,1.08878 2,0.66667 1.1,-0.42211 2,-0.15089 2,0.60271 0,0.75359 0.6,0.99935 1.33334,0.54613 0.73333,-0.45323 1.33333,-0.15323 1.33333,0.66666 0,0.81989 0.6,1.11989 1.33333,0.66667 0.73334,-0.45322 1.33334,-0.15322 1.33334,0.66667 0,0.81989 0.6,1.11989 1.33333,0.66666 0.73333,-0.45322 1.33333,-0.18863 1.33333,0.58798 0,0.77661 0.55765,1.26202 1.23923,1.07869 0.68157,-0.18333 2.22607,0.86667 3.43221,2.33333 1.20614,1.46667 1.75691,1.76667 1.22393,0.66667 -0.53299,-1.1 1.96651,1 5.55444,4.66667 3.58793,3.66666 6.38548,7.09875 6.21679,7.62685 -0.1687,0.52811 0.90411,1.60821 2.38402,2.40023 1.47991,0.79203 2.33852,2.00994 1.90804,2.70648 -0.43049,0.69654 -0.11188,1.26644 0.70801,1.26644 0.81989,0 1.11989,0.6 0.66667,1.33333 -0.45323,0.73333 -0.15323,1.33333 0.66666,1.33333 0.81989,0 1.11989,0.6 0.66667,1.33339 -0.45322,0.7333 -0.15322,1.3333 0.66667,1.3333 0.81989,0 1.14551,0.5585 0.7236,1.2412 -0.4219,0.6826 -0.14753,1.6241 0.60973,2.0921 0.75726,0.468 1.03163,1.4095 0.60973,2.0921 -0.42191,0.6827 -0.0675,1.2413 0.78757,1.2413 0.85507,0 1.21668,0.8807 0.80358,1.9573 -0.41309,1.0765 -0.15288,2.327 0.57825,2.7788 0.73114,0.4519 0.95537,1.9999 0.49828,3.44 -0.45708,1.4402 -0.11993,3.4753 0.74923,4.5226 1.00761,1.2141 1.29264,4.2108 0.78653,8.2694 -0.43657,3.5008 -0.94813,7.6654 -1.1368,9.2545 -0.18867,1.5892 -0.7517,3.2979 -1.25117,3.7971 -0.49947,0.4992 -0.58528,1.749 -0.19068,2.7773 0.3946,1.0283 0.0721,1.8696 -0.71669,1.8696 -0.78877,0 -1.08877,0.9 -0.66667,2 0.42211,1.1 0.0679,2 -0.7872,2 -0.85507,0 -1.18385,0.6 -0.73063,1.3334 0.45323,0.7333 0.15323,1.3333 -0.66666,1.3333 -0.81989,0 -1.11989,0.6 -0.66667,1.3333 0.45322,0.7334 0.15322,1.3334 -0.66667,1.3334 -0.81989,0 -1.11989,0.6 -0.66666,1.3333 0.45322,0.7333 0.18863,1.3333 -0.58798,1.3333 -0.77661,0 -1.26202,0.5577 -1.07869,1.2392 0.18333,0.6816 -0.86667,2.2261 -2.33333,3.4323 -1.46667,1.2061 -1.76667,1.729 -0.66667,1.162 1.1,-0.567 -1.3,2.223 -5.33333,6.1999 -4.03334,3.9769 -7.80003,7.0908 -8.37044,6.9197 -0.5704,-0.1711 -1.38327,0.591 -1.80638,1.6936 -0.4231,1.1025 -1.30641,1.6727 -1.9629,1.267 -0.65649,-0.4058 -1.19362,-0.1427 -1.19362,0.5844 0,1.326 -5.12435,3.5949 -7,3.0994 -0.55,-0.1453 -1,0.3359 -1,1.0692 0,0.7333 -0.45,1.2623 -1,1.1754 -0.55,-0.087 -1.45,-0.012 -2,0.1667 -0.55,0.1785 -1.6,0.4746 -2.33333,0.6579 -0.73333,0.1833 -1.48333,0.4857 -1.66667,0.6719 -1.73354,1.7609 -23.66976,2.9854 -25.54859,1.4261 -0.97904,-0.8126 -2.69544,-1.1261 -3.81421,-0.6968 -1.11877,0.4293 -2.41403,0.1659 -2.87836,-0.5854 -0.46433,-0.7513 -1.72502,-1.028 -2.80154,-0.6149 -1.07651,0.4131 -1.9573,0.052 -1.9573,-0.8036 0,-0.8551 -0.6,-1.1839 -1.33333,-0.7306 -0.73333,0.4532 -1.33333,0.1244 -1.33333,-0.7307 0,-0.855 -0.9,-1.2093 -2,-0.7872 -1.1,0.4221 -2,0.086 -2,-0.7462 0,-0.8326 -0.39068,-1.1231 -0.86817,-0.6456 -0.47749,0.4775 -1.72198,-0.1725 -2.76554,-1.4444 -1.25421,-1.5287 -1.59866,-1.6347 -1.01613,-0.3126 0.48468,1.1 -0.42289,0.5 -2.01683,-1.3333 -1.59394,-1.8334 -2.44593,-2.4334 -1.89332,-1.3334 0.55261,1.1 -2.54532,-1.6385 -6.8843,-6.0856 -4.33898,-4.4471 -5.78905,-5.6084 -3.22238,-2.5806 2.56667,3.0277 -0.40703,0.3663 -6.6082,-5.9144 -6.20118,-6.2807 -10.80547,-10.5194 -10.23175,-9.4194 0.57371,1.1 -0.12811,0.6755 -1.55961,-0.9433 -1.4315,-1.6188 -2.96309,-2.5829 -3.40353,-2.1425 -0.44045,0.4405 -1.1778,-0.1816 -1.63857,-1.3824 -0.46077,-1.2007 -1.3749,-1.8512 -2.03139,-1.4454 -0.65649,0.4057 -1.19362,0.067 -1.19362,-0.753 0,-0.8199 -0.6,-1.1199 -1.33333,-0.6667 -0.73333,0.4532 -1.33333,0.1532 -1.33333,-0.6667 0,-0.8199 -0.6,-1.1199 -1.33334,-0.6666 -0.73333,0.4532 -1.33333,0.1532 -1.33333,-0.6667 0,-0.8199 -0.6,-1.1199 -1.33333,-0.6667 -0.73334,0.4532 -1.33334,0.2075 -1.33334,-0.5461 0,-0.7536 -0.9,-1.0248 -2,-0.6027 -1.1,0.4221 -2,0.1667 -2,-0.5675 0,-0.7342 -1.35,-1.4068 -3,-1.4948 -1.65,-0.088 -6.77291,-0.5058 -11.38426,-0.9287 -5.28794,-0.4849 -9.04164,-0.2233 -10.16433,0.7085 -0.97904,0.8125 -2.69544,1.1261 -3.81421,0.6968 -1.11877,-0.4294 -2.43628,-0.1299 -2.92779,0.6654 -0.49152,0.7953 -1.45221,1.1008 -2.13487,0.6788 -0.68266,-0.4219 -1.2412,-0.032 -1.2412,0.8672 0,0.8988 -0.38228,1.252 -0.8495,0.7847 -0.46722,-0.4672 -2.56722,0.3737 -4.66667,1.8686 -2.09944,1.4949 -3.81717,2.2625 -3.81717,1.7058 0,-0.5568 -0.88091,0.1524 -1.95759,1.5758 -1.07668,1.4235 -1.98587,1.9882 -2.02042,1.2549 -0.0345,-0.7333 -0.63175,-0.4333 -1.3271,0.6667 -0.69536,1.1 -1.73954,2 -2.32041,2 -0.58087,0 -5.25276,4.2329 -10.38197,9.4064 -5.12921,5.1736 -7.22584,6.9502 -4.65917,3.9482 2.56666,-3.0021 1.06666,-1.8541 -3.33334,2.5512 -4.4,4.4052 -8.46669,7.873 -9.0371,7.7061 -0.5704,-0.1668 -1.38327,0.5988 -1.80638,1.7014 -0.4231,1.1025 -1.30641,1.6727 -1.9629,1.267 -0.65649,-0.4058 -1.19362,-0.1751 -1.19362,0.5125 0,1.0653 -6.5445,4.4899 -9.66666,5.0584 -0.55,0.1001 -1.3,0.3321 -1.66667,0.5154 -0.36667,0.1834 -1.11667,0.4175 -1.66667,0.5204 -0.55,0.1029 -1.69585,0.6299 -2.54634,1.171 -0.85049,0.5412 -2.4398,0.6411 -3.5318,0.222 -1.092,-0.419 -2.38156,-0.1209 -2.86568,0.6624 -1.1336,1.8342 -17.6255,1.8664 -18.75636,0.037 z M 696.63204,718.40322 c -0.46061,-0.74529 -1.24602,-1.15659 -1.74535,-0.91398 -0.49933,0.2426 -2.23643,-0.94762 -3.86023,-2.64492 -1.62379,-1.69731 -2.60032,-3.08601 -2.17007,-3.08601 0.43026,0 0.0592,-0.87121 -0.82447,-1.93602 -0.8883,-1.07034 -1.21014,-3.18562 -0.71977,-4.73065 0.48784,-1.53705 0.18576,-3.63956 -0.67129,-4.67224 -0.85705,-1.03269 -1.19684,-2.46244 -0.75508,-3.17722 0.44176,-0.71479 0.15251,-1.70176 -0.64278,-2.19328 -0.79529,-0.49151 -1.13128,-1.71376 -0.74664,-2.71609 0.38463,-1.00234 0.11575,-2.18311 -0.59752,-2.62393 -0.71327,-0.44083 -0.97728,-1.31858 -0.58669,-1.95057 0.39059,-0.63199 0.0906,-1.53199 -0.66666,-2 -0.75726,-0.46801 -1.03164,-1.40947 -0.60973,-2.09213 0.42191,-0.68267 0.1317,-1.24121 -0.64492,-1.24121 -0.77661,0 -1.29073,-0.45 -1.14249,-1 0.14823,-0.55 -1.17305,-3.7 -2.9362,-7 -1.76314,-3.3 -3.08443,-6.45 -2.93619,-7 0.14824,-0.55 -0.33047,-1 -1.06381,-1 -0.73333,0 -1.33333,-0.8358 -1.33333,-1.85734 0,-1.02155 -0.90557,-2.20485 -2.01237,-2.62957 -1.1068,-0.42472 -1.8568,-1.28129 -1.66666,-1.9035 0.19013,-0.6222 -1.4543,-2.81376 -3.6543,-4.87013 -2.2,-2.05637 -2.95,-2.99053 -1.66667,-2.0759 4.12349,2.9388 2.50214,0.71846 -3.93297,-5.38595 -3.44646,-3.26935 -5.47952,-4.74427 -4.51791,-3.27761 0.96161,1.46667 -0.50919,0.26667 -3.26845,-2.66666 -2.75926,-2.93334 -4.57413,-4.43334 -4.03305,-3.33334 0.54108,1.1 -0.25494,0.5 -1.76894,-1.33333 -1.51399,-1.83333 -2.76606,-2.76866 -2.78237,-2.07849 -0.0163,0.69016 -0.97414,0.0902 -2.12852,-1.33334 -1.15438,-1.42349 -1.70989,-1.68817 -1.23446,-0.58817 0.5768,1.33452 0.23309,1.23051 -1.03296,-0.31261 -1.04355,-1.27193 -2.28805,-1.92193 -2.76554,-1.44444 -0.47749,0.47749 -0.86816,0.13275 -0.86816,-0.76608 0,-0.89884 -0.6,-1.26343 -1.33334,-0.8102 -0.73333,0.45322 -1.33333,0.15322 -1.33333,-0.66667 0,-0.81989 -0.6,-1.11989 -1.33333,-0.66667 -0.73334,0.45323 -1.33334,0.20747 -1.33334,-0.54613 0,-0.75359 -0.9,-1.02481 -2,-0.6027 -1.1,0.42211 -2,0.0679 -2,-0.7872 0,-0.85508 -0.6,-1.18386 -1.33333,-0.73063 -0.73333,0.45322 -1.33333,0.12444 -1.33333,-0.73063 0,-0.87336 -0.92921,-1.1981 -2.12033,-0.74103 -1.16617,0.4475 -2.76217,0.41696 -3.54665,-0.0679 -1.92147,-1.18753 -18.84253,-1.127 -20.78637,0.0744 -0.85066,0.52573 -2.17294,0.56881 -2.93839,0.0957 -0.76546,-0.47308 -2.26546,-0.13503 -3.33334,0.75123 -1.06787,0.88626 -1.94159,1.16445 -1.94159,0.6182 0,-0.54626 -0.80521,-0.32493 -1.78935,0.49184 -0.98414,0.81676 -2.18414,1.09023 -2.66666,0.6077 -0.48253,-0.48253 -0.87732,-0.17732 -0.87732,0.67823 0,0.85556 -0.45,1.44746 -1,1.31533 -1.35648,-0.32587 -11.5544,4.65377 -12.11388,5.9152 -0.24597,0.55457 -0.99597,0.66916 -1.66667,0.25465 -0.6707,-0.41452 -1.21945,-0.11826 -1.21945,0.65836 0,0.77661 -0.9,1.41202 -2,1.41202 -1.1,0 -2,0.63541 -2,1.41202 0,0.77662 -0.53713,1.08006 -1.19362,0.67433 -0.65649,-0.40574 -1.55226,0.19688 -1.99059,1.33915 -0.43833,1.14227 -1.33833,1.74227 -2,1.33333 -0.66167,-0.40893 -1.56167,0.19107 -2,1.33334 -0.43833,1.14227 -1.40543,1.70079 -2.14913,1.24116 -0.74369,-0.45962 -1.7108,0.0989 -2.14913,1.24117 -0.43833,1.14227 -1.33833,1.74227 -2,1.33333 -0.66167,-0.40893 -1.56167,0.19107 -2,1.33334 -0.43833,1.14226 -1.30398,1.76349 -1.92368,1.38049 -0.6197,-0.38299 -1.78693,0.53726 -2.59385,2.04501 -0.80692,1.50774 -1.97416,2.42799 -2.59385,2.045 -0.6197,-0.383 -1.48536,0.23823 -1.92369,1.3805 -0.43833,1.14227 -1.4012,1.70341 -2.13971,1.24698 -0.73852,-0.45642 -1.34275,-0.19445 -1.34275,0.58216 0,0.77661 -0.9,1.41202 -2,1.41202 -1.1,0 -2,0.63541 -2,1.41203 0,0.77661 -0.53713,1.08005 -1.19362,0.67432 -0.65649,-0.40573 -1.55226,0.19689 -1.99059,1.33915 -0.43833,1.14227 -1.4012,1.70342 -2.13971,1.24699 -0.73851,-0.4564 -1.34275,-0.15901 -1.34275,0.66088 0,0.81989 -0.6,1.11989 -1.33333,0.66666 -0.73334,-0.45322 -1.33334,-0.18863 -1.33334,0.58798 0,0.77661 -0.45,1.34097 -1,1.25413 -0.55,-0.0868 -1.45,-0.0118 -2,0.16667 -0.55,0.1785 -1.6,0.47456 -2.33333,0.65789 -0.73333,0.18333 -1.63333,0.48333 -2,0.66667 -0.36667,0.18333 -1.26667,0.48333 -2,0.66666 -0.73333,0.18334 -1.48333,0.48571 -1.66667,0.67193 -2.16076,2.1949 -28.79106,1.98308 -31.01971,-0.24673 -0.49921,-0.49947 -1.749,-0.58527 -2.77731,-0.19068 -1.0283,0.3946 -1.86964,0.0721 -1.86964,-0.71669 0,-0.78877 -0.9,-1.08877 -2,-0.66666 -1.1,0.42211 -2,0.0679 -2,-0.7872 0,-0.85508 -0.6,-1.18386 -1.33334,-0.73063 -0.73333,0.45322 -1.33333,0.15322 -1.33333,-0.66667 0,-0.81989 -0.6,-1.11989 -1.33333,-0.66667 -0.73334,0.45323 -1.33334,0.15323 -1.33334,-0.66666 0,-0.81989 -0.53713,-1.15875 -1.19362,-0.75302 -0.65649,0.40574 -1.53979,-0.16442 -1.9629,-1.26701 -0.4231,-1.10259 -1.34362,-1.84914 -2.0456,-1.65901 -0.70198,0.19014 -2.26317,-0.8543 -3.46931,-2.32096 -1.20614,-1.46667 -1.76034,-1.76667 -1.23155,-0.66667 0.5288,1.1 -1.50186,-0.3475 -4.51256,-3.21667 -3.01071,-2.86917 -5.18206,-5.68907 -4.82522,-6.26644 0.35683,-0.57737 -0.58482,-1.70997 -2.09257,-2.51689 -1.50775,-0.80692 -2.38914,-2.03702 -1.95865,-2.73356 0.43048,-0.69654 0.22008,-1.26644 -0.46757,-1.26644 -1.32968,0 -5.0921,-7.9803 -4.55747,-9.66667 0.17436,-0.55 -0.34717,-1 -1.15896,-1 -0.81179,0 -1.13062,-0.9 -0.70851,-2 0.4221,-1.1 0.1221,-2 -0.66667,-2 -0.78878,0 -1.11129,-0.84134 -0.71669,-1.86964 0.3946,-1.02831 0.30879,-2.27829 -0.19068,-2.77775 -1.26255,-1.26251 -1.3073,-26.02722 -0.0484,-26.80524 0.56311,-0.34802 0.68585,-1.51355 0.27276,-2.59007 -0.4131,-1.07651 -0.0227,-1.9573 0.86755,-1.9573 0.89099,0 1.27363,-0.89907 0.85116,-2 -0.42211,-1.1 -0.20513,-2 0.48217,-2 0.6873,0 0.86651,-0.99842 0.39824,-2.21872 -0.6116,-1.5938 -0.36332,-1.91708 0.88148,-1.14774 1.16485,0.71991 1.52857,0.4638 1.10956,-0.78128 -0.34283,-1.01874 0.32933,-2.64675 1.49369,-3.6178 1.69639,-1.41474 1.71964,-1.59379 0.11703,-0.90112 -1.1,0.47543 -0.83532,-0.0801 0.58817,-1.23446 1.4235,-1.15438 2.0235,-2.11222 1.33334,-2.12852 -0.69017,-0.0163 0.24516,-1.26838 2.07849,-2.78237 1.83333,-1.514 2.43333,-2.31399 1.33333,-1.77775 -1.1,0.53624 0.64939,-1.78568 3.88754,-5.15982 3.23814,-3.37413 6.39238,-5.82277 7.00942,-5.44143 0.61703,0.38135 1.48183,-0.24466 1.92178,-1.39114 0.43994,-1.14648 1.63571,-2.08451 2.65725,-2.08451 1.02154,0 1.85735,-0.63541 1.85735,-1.41203 0,-0.77661 0.6,-1.0412 1.33333,-0.58797 0.73333,0.45322 1.33333,0.15322 1.33333,-0.66667 0,-0.81989 0.6,-1.11989 1.33334,-0.66667 0.73329,0.45323 1.33329,0.15323 1.33329,-0.66666 0,-0.81989 0.55854,-1.14552 1.2412,-0.72361 0.68266,0.42191 1.62412,0.14753 2.09213,-0.60973 0.46801,-0.75725 1.40947,-1.03163 2.09213,-0.60972 0.68267,0.4219 1.24121,0.0675 1.24121,-0.78757 0,-0.85507 0.88078,-1.21669 1.9573,-0.80359 1.07651,0.4131 2.27711,0.23362 2.66799,-0.39884 0.39088,-0.63246 1.84238,-0.85399 3.22556,-0.49228 1.38317,0.36171 2.91798,0.005 3.41069,-0.79184 1.14452,-1.85188 16.29913,-1.90569 17.43864,-0.0619 0.47166,0.76316 1.95658,1.03876 3.29982,0.61243 1.34323,-0.42633 2.81195,-0.17694 3.26382,0.5542 0.45187,0.73113 1.70236,0.99135 2.77888,0.57825 1.07651,-0.4131 1.9573,-0.10572 1.9573,0.68305 0,0.78878 0.9,1.08878 2,0.66667 1.1,-0.42211 2,-0.0679 2,0.7872 0,0.85507 0.6,1.18385 1.33333,0.73063 0.73333,-0.45322 1.33333,-0.15322 1.33333,0.66667 0,0.81989 0.6,1.11989 1.33334,0.66666 0.73333,-0.45324 1.33333,-0.15324 1.33333,0.66665 0,0.81989 0.56312,1.14268 1.25139,0.71731 0.68826,-0.42537 1.87001,0.28922 2.62612,1.58798 0.7561,1.29876 1.39298,1.7967 1.41528,1.10654 0.0223,-0.69016 0.98504,-0.0902 2.13942,1.33333 1.15438,1.4235 1.70989,1.68817 1.23446,0.58817 -0.47543,-1.1 0.1059,-0.8 1.29185,0.66667 1.18595,1.46667 2.75233,2.66667 3.48084,2.66667 0.72852,0 1.8935,0.9 2.58886,2 0.69535,1.1 1.28681,1.4 1.31434,0.66666 0.0275,-0.73333 1.28879,0.16667 2.80279,2 1.514,1.83334 2.35494,2.43334 1.86877,1.33334 -0.48618,-1.1 0.36176,-0.58353 1.8843,1.14771 1.52253,1.73124 2.78159,2.63124 2.79789,2 0.0163,-0.63124 1.26838,0.35229 2.78237,2.18562 1.514,1.83333 2.34859,2.43333 1.85465,1.33333 -0.49394,-1.1 0.34066,-0.5 1.85465,1.33334 1.514,1.83333 2.76607,2.76865 2.78237,2.07849 0.0163,-0.69016 0.91057,-0.0902 1.98725,1.33333 1.07667,1.4235 1.97667,2.0235 2,1.33334 0.0233,-0.69016 0.98689,-0.0902 2.14128,1.33333 1.15438,1.4235 1.70988,1.68817 1.23445,0.58817 -0.57679,-1.33452 -0.23309,-1.2305 1.03296,0.31261 1.04356,1.27194 2.28806,1.92194 2.76555,1.44445 0.47749,-0.47749 0.86816,-0.13276 0.86816,0.76608 0,0.89883 0.6,1.26342 1.33333,0.8102 0.73334,-0.45323 1.33334,-0.15323 1.33334,0.66666 0,0.81989 0.6,1.11989 1.33333,0.66667 0.73333,-0.45322 1.33333,-0.15322 1.33333,0.66667 0,0.81989 0.6,1.11989 1.33334,0.66666 0.73333,-0.45322 1.33333,-0.15322 1.33333,0.66667 0,0.81989 0.6,1.11989 1.33333,0.66667 0.73334,-0.45323 1.33334,-0.20747 1.33334,0.54613 0,0.75359 0.9,1.02481 2,0.6027 1.1,-0.42211 2,-0.0679 2,0.7872 0,0.85508 0.55854,1.20948 1.2412,0.78757 0.68266,-0.4219 1.62412,-0.14753 2.09213,0.60973 0.46801,0.75726 1.40947,1.03163 2.09213,0.60973 0.68266,-0.42191 1.9226,-0.34598 2.75541,0.16872 1.34534,0.83147 20.94653,1.20456 23.48579,0.44704 0.55,-0.16408 1.6,-0.38468 2.33334,-0.49022 0.73333,-0.10554 2.60444,-0.89304 4.15802,-1.75 1.55358,-0.85696 3.20358,-1.17922 3.66667,-0.71614 0.46308,0.46309 0.84197,0.10657 0.84197,-0.79226 0,-0.89884 0.6,-1.26343 1.33334,-0.8102 0.73333,0.45322 1.33333,0.15322 1.33333,-0.66667 0,-0.81989 0.6,-1.11989 1.33333,-0.66667 0.73334,0.45323 1.33334,0.15323 1.33334,-0.66666 0,-0.81989 0.6,-1.11989 1.33333,-0.66667 0.73333,0.45322 1.33333,0.15322 1.33333,-0.66667 0,-0.81989 0.53713,-1.15874 1.19362,-0.75301 0.65649,0.40573 1.55226,-0.19689 1.99059,-1.33915 0.43833,-1.14227 1.33833,-1.74227 2,-1.33334 0.66167,0.40894 1.54921,-0.1586 1.97231,-1.26119 0.42311,-1.10259 1.30664,-1.84914 1.96341,-1.65901 0.65677,0.19014 2.51918,-1.1543 4.13868,-2.98763 1.61951,-1.83333 2.50473,-2.43333 1.96716,-1.33333 -0.53758,1.1 2.41326,-1.3 6.55742,-5.33334 7.71973,-7.5133 9.33826,-9.58651 5.21681,-6.68234 -1.28333,0.9043 -0.23333,-0.30133 2.33334,-2.67919 2.56666,-2.37785 3.76666,-3.89856 2.66666,-3.37934 -1.1,0.51922 -0.58353,-0.30167 1.14772,-1.82421 1.73124,-1.52254 2.66656,-2.76825 2.07849,-2.76825 -0.58807,0 0.0955,-0.94449 1.51895,-2.09888 1.4235,-1.15438 1.68818,-1.70988 0.58818,-1.23445 -1.33453,0.57679 -1.23051,0.23309 0.31261,-1.03296 1.27193,-1.04356 1.92193,-2.28806 1.44444,-2.76555 -0.47749,-0.47749 -0.13275,-0.86816 0.76608,-0.86816 0.89884,0 1.26342,-0.6 0.8102,-1.33333 -0.45322,-0.73334 -0.15322,-1.33334 0.66667,-1.33334 0.81989,0 1.11989,-0.6 0.66666,-1.33333 -0.45322,-0.73333 -0.12444,-1.33333 0.73063,-1.33333 0.85507,0 1.20931,-0.9 0.7872,-2 -0.4221,-1.1 -0.15089,-2 0.60271,-2 0.7536,0 1.02498,-0.55854 0.60307,-1.24121 -0.42191,-0.68266 -0.14753,-1.62412 0.60973,-2.09213 0.75725,-0.46801 1.05725,-1.36801 0.66666,-2 -0.39059,-0.63199 -0.12658,-1.50974 0.58669,-1.95057 0.71327,-0.44082 0.95886,-1.68228 0.54576,-2.75879 -0.41309,-1.07652 -0.0465,-1.9573 0.81475,-1.9573 0.93614,0 1.2398,-1.02727 0.75508,-2.55446 -0.44591,-1.40495 -0.206,-2.92822 0.53315,-3.38503 0.73914,-0.45682 1.0031,-2.53454 0.58658,-4.61717 -0.43196,-2.15975 -0.11743,-4.18207 0.73208,-4.7071 0.81918,-0.50628 1.14421,-1.47905 0.72231,-2.16171 -0.42191,-0.68266 -0.0963,-1.2412 0.7236,-1.2412 0.81989,0 1.0626,-0.69271 0.53935,-1.53934 -0.59151,-0.95708 -0.36554,-1.17728 0.59739,-0.58216 0.85182,0.52645 1.8578,0.15184 2.23552,-0.83247 0.90246,-2.35179 10.20352,-2.27705 13.07436,0.10505 1.20488,0.99975 1.88751,2.3083 1.51695,2.90786 -0.37055,0.59957 -0.0617,1.46836 0.68624,1.93064 0.74799,0.46228 1.00916,2.23829 0.58038,3.94667 -0.42877,1.70839 -0.10657,3.52212 0.71601,4.0305 0.82259,0.50838 1.1468,2.02335 0.72047,3.36658 -0.42633,1.34324 -0.14095,2.8342 0.63418,3.31326 0.77512,0.47905 1.04788,1.45583 0.60612,2.17061 -0.44177,0.71479 -0.0781,2.17333 0.80817,3.24121 0.88626,1.06787 1.16445,1.94159 0.6182,1.94159 -0.54626,0 -0.24626,0.9 0.66666,2 0.91292,1.1 1.27256,2 0.79919,2 -0.47336,0 0.0553,1.3979 1.17475,3.10643 1.11948,1.70854 1.63331,3.50854 1.14185,4 -0.49146,0.49147 -0.15815,0.89357 0.74068,0.89357 0.89884,0 1.26342,0.6 0.8102,1.33333 -0.45322,0.73334 -0.15322,1.33334 0.66667,1.33334 0.81989,0 1.11989,0.6 0.66666,1.33333 -0.45322,0.73333 -0.15322,1.33333 0.66667,1.33333 0.81989,0 1.11989,0.6 0.66667,1.33334 -0.45323,0.73333 -0.18864,1.33333 0.58797,1.33333 0.77662,0 1.41203,0.9 1.41203,2 0,1.1 0.63541,2 1.41202,2 0.77661,0 1.05981,0.5699 0.62932,1.26644 -0.43048,0.69654 0.42813,1.91445 1.90804,2.70647 1.47991,0.79202 2.58243,1.87213 2.45005,2.40023 -0.27264,1.0876 17.75648,19.43857 19.20984,19.55279 0.51843,0.0407 1.91292,1.27407 3.09887,2.74074 1.18595,1.46666 1.76729,1.76666 1.29186,0.66666 -0.5768,-1.33452 -0.23309,-1.2305 1.03296,0.31261 1.04355,1.27194 2.27393,1.93606 2.73415,1.47583 0.46023,-0.46023 1.21378,0.14565 1.67455,1.3464 0.46077,1.20075 1.37489,1.85122 2.03138,1.44548 0.65649,-0.40573 1.19362,-0.0669 1.19362,0.75302 0,0.81989 0.6,1.11989 1.33334,0.66666 0.73333,-0.45322 1.33333,-0.15322 1.33333,0.66667 0,0.81989 0.6,1.11989 1.33333,0.66667 0.73334,-0.45323 1.33334,-0.20747 1.33334,0.54613 0,0.75359 0.9,1.02481 2,0.6027 1.1,-0.42211 2,-0.0679 2,0.7872 0,0.85508 0.6,1.18386 1.33333,0.73063 0.73333,-0.45322 1.33333,-0.12444 1.33333,0.73063 0,0.85507 0.9,1.20931 2,0.7872 1.1,-0.4221 2,-0.1221 2,0.66667 0,0.78878 0.88079,1.09615 1.9573,0.68305 1.07652,-0.41309 2.31798,-0.1675 2.7588,0.54577 0.44082,0.71327 1.36004,0.95165 2.0427,0.52974 0.68266,-0.4219 1.9912,-0.28568 2.90787,0.30272 1.54273,0.99026 3.28253,1.31584 11.33333,2.1209 1.65,0.16499 3,0.7854 3,1.37868 0,0.59328 0.53202,0.74988 1.18226,0.34801 1.4682,-0.90739 4.4564,2.4902 3.25062,3.69598 -0.48253,0.48253 -0.32732,0.87732 0.3449,0.87732 0.67222,0 1.22222,1.8 1.22222,4 0,2.2 -0.48541,4 -1.07869,4 -0.59328,0 -0.73324,0.55895 -0.31102,1.2421 0.94093,1.52246 -4.58431,5.598 -6.21932,4.58751 -0.64594,-0.39922 -2.01937,-0.0246 -3.05206,0.83243 -1.03268,0.85705 -3.0559,1.1843 -4.49605,0.72721 -1.44014,-0.45708 -3.01943,-0.18224 -3.50952,0.61075 -0.4901,0.79299 -2.04059,1.07697 -3.44555,0.63105 -1.52719,-0.48471 -2.55445,-0.18106 -2.55445,0.75508 0,0.86121 -0.88079,1.22785 -1.9573,0.81475 -1.07652,-0.41309 -2.31798,-0.1675 -2.7588,0.54577 -0.44082,0.71327 -1.31858,0.97727 -1.95057,0.58668 -0.63199,-0.39059 -1.53199,-0.0906 -2,0.66667 -0.46801,0.75726 -1.40947,1.03163 -2.09213,0.60973 -0.68266,-0.42191 -1.2412,-0.0317 -1.2412,0.86714 0,0.89883 -0.36592,1.26833 -0.81315,0.82109 -0.44723,-0.44723 -3.08131,0.61869 -5.85352,2.36871 -2.77221,1.75001 -5.40629,2.81593 -5.85352,2.3687 -0.44723,-0.44723 -0.81315,-0.0777 -0.81315,0.8211 0,0.89883 -0.53713,1.30228 -1.19362,0.89654 -0.65649,-0.40573 -1.55225,0.19689 -1.99058,1.33916 -0.43833,1.14227 -1.3711,1.72201 -2.07282,1.28833 -0.70171,-0.43369 -1.92387,0.42231 -2.71589,1.90222 -0.79202,1.47991 -1.87213,2.59308 -2.40023,2.47372 -0.5281,-0.11936 -5.02678,3.83228 -9.99706,8.78141 -4.97027,4.94914 -8.27027,8.60937 -7.33333,8.13385 0.93694,-0.47553 -0.0965,0.74466 -2.29647,2.71152 -2.2,1.96686 -3.1,3.16576 -2,2.66423 1.29785,-0.59173 1.1881,-0.24575 -0.31261,0.98551 -1.27193,1.04356 -1.93605,2.27393 -1.47582,2.73416 0.46022,0.46023 -0.14566,1.21377 -1.3464,1.67454 -1.20075,0.46077 -1.85122,1.3749 -1.44549,2.03139 0.40574,0.65649 0.0669,1.19362 -0.75301,1.19362 -0.81989,0 -1.11989,0.6 -0.66667,1.33333 0.45323,0.73333 0.15323,1.33333 -0.66666,1.33333 -0.81989,0 -1.11989,0.6 -0.66667,1.33334 0.45322,0.73333 0.15322,1.33333 -0.66667,1.33333 -0.81989,0 -1.11989,0.6 -0.66666,1.33333 0.45322,0.73334 0.12444,1.33334 -0.73063,1.33334 -0.85507,0 -1.20931,0.9 -0.7872,2 0.4221,1.1 0.20513,2 -0.48217,2 -0.68731,0 -0.90428,0.9 -0.48217,2 0.42211,1.1 0.12211,2 -0.66667,2 -0.78877,0 -1.08877,0.9 -0.66667,2 0.42247,1.10092 0.0398,2 -0.85116,2 -0.89025,0 -1.29578,0.84134 -0.90119,1.86964 0.3946,1.02831 0.30879,2.2781 -0.19068,2.77731 -0.96637,0.96587 -1.6366,5.67039 -1.6649,11.68638 -0.009,2.01667 -0.6285,3.66667 -1.37559,3.66667 -0.7471,0 -1.03709,0.51981 -0.64444,1.15513 0.39266,0.63533 -0.47193,2.22832 -1.92131,3.53999 -1.44937,1.31166 -2.63522,1.87185 -2.63522,1.24486 0,-0.62699 -0.72,-0.41998 -1.6,0.46002 -1.95637,1.95636 -3.30931,2.03144 -4.41345,0.24491 z m 44.68011,-144.39546 c 0,-0.22946 -1.95,-2.17946 -4.33333,-4.33333 -4.33333,-3.91612 -4.33333,-3.91612 -0.41721,0.41721 3.65037,4.03927 4.75054,4.9462 4.75054,3.91612 z m 152.42807,96.02964 c -0.35887,-0.57983 -1.80199,-0.68939 -3.20694,-0.24348 -1.5272,0.48471 -2.55446,0.18106 -2.55446,-0.75508 0,-0.86121 -0.9,-1.22047 -2,-0.79836 -1.1,0.4221 -2,0.20513 -2,-0.48217 0,-0.68731 -0.9,-0.90428 -2,-0.48217 -1.1,0.42211 -2,0.0679 -2,-0.7872 0,-0.85508 -0.6,-1.18386 -1.33333,-0.73063 -0.73334,0.45322 -1.33334,0.15322 -1.33334,-0.66667 0,-0.81989 -0.56312,-1.14268 -1.25138,-0.71731 -0.68827,0.42537 -1.87002,-0.28922 -2.62612,-1.58798 -0.75611,-1.29876 -1.39299,-1.7967 -1.41529,-1.10654 -0.0223,0.69016 -0.98503,0.0902 -2.13942,-1.33333 -1.15438,-1.4235 -1.65728,-1.68817 -1.11756,-0.58817 0.53973,1.1 -2.25207,-1.3 -6.20399,-5.33334 -3.95193,-4.03333 -7.19903,-7.80521 -7.21578,-8.38196 -0.0168,-0.57675 -0.93046,-1.61756 -2.03046,-2.31292 -1.1,-0.69535 -1.4,-1.29172 -0.66666,-1.32524 0.73333,-0.0335 0.27071,-0.6796 -1.02805,-1.4357 -1.29875,-0.75611 -2.01334,-1.93786 -1.58797,-2.62612 0.42537,-0.68827 0.13799,-1.25139 -0.63863,-1.25139 -0.77661,0 -1.28455,-0.45 -1.12875,-1 0.1558,-0.55 -0.46531,-2.35 -1.38025,-4 -0.91493,-1.65 -1.26893,-3 -0.78667,-3 0.48226,0 0.18232,-0.83684 -0.66654,-1.85965 -0.84886,-1.02281 -1.45127,-2.37281 -1.3387,-3 0.11257,-0.62719 0.0853,-1.44035 -0.0605,-1.80702 -0.77729,-1.95382 -0.57375,-25.67737 0.22453,-26.17041 0.51797,-0.31991 0.60378,-1.46244 0.19068,-2.53895 -0.41309,-1.07652 -0.0227,-1.9573 0.86755,-1.9573 0.891,0 1.27363,-0.89908 0.85117,-2 -0.42211,-1.1 -0.12211,-2 0.66666,-2 0.78878,0 1.08878,-0.9 0.66667,-2 -0.42211,-1.1 -0.15089,-2 0.60271,-2 0.75359,0 0.99935,-0.6 0.54613,-1.33334 -0.45327,-0.73333 -0.0887,-1.33333 0.81016,-1.33333 0.89883,0 1.24357,-0.39067 0.76608,-0.86816 -0.47749,-0.47749 0.17251,-1.72199 1.44444,-2.76555 1.52869,-1.25421 1.63465,-1.59865 0.31261,-1.01613 -1.1,0.48468 -0.5,-0.42289 1.33333,-2.01683 1.83334,-1.59394 2.43334,-2.5026 1.33334,-2.01925 -1.1,0.48334 -0.2,-0.67893 2,-2.58283 2.2,-1.9039 3.83513,-4.0919 3.63363,-4.86222 -0.2015,-0.77031 0.20262,-1.04892 0.89804,-0.61913 0.69543,0.4298 2.55618,-1.03265 4.13499,-3.2499 1.57882,-2.21725 3.36183,-3.72775 3.96225,-3.35667 0.60041,0.37108 1.45029,-0.2599 1.88862,-1.40216 0.43833,-1.14227 1.4012,-1.70342 2.13972,-1.24699 0.73851,0.45643 1.34275,0.15904 1.34275,-0.66085 0,-0.81989 0.6,-1.11989 1.33333,-0.66666 0.73333,0.45322 1.33333,0.15322 1.33333,-0.66667 0,-0.81989 0.6,-1.11989 1.33334,-0.66667 0.73333,0.45323 1.33333,0.15323 1.33333,-0.66666 0,-0.81989 0.55854,-1.14552 1.2412,-0.72361 0.68266,0.42191 1.62412,0.14753 2.09213,-0.60973 0.46801,-0.75725 1.36801,-1.05725 2,-0.66666 0.63199,0.39059 1.53199,0.0906 2,-0.66667 0.46801,-0.75726 1.40947,-1.03163 2.09213,-0.60973 0.68267,0.42191 1.99121,0.28789 2.90787,-0.29782 2.32466,-1.48535 23.97963,-1.5445 25.9416,-0.0708 0.88454,0.66438 2.19308,0.84653 2.90787,0.40477 0.71478,-0.44176 1.66028,-0.21962 2.1011,0.49365 0.44083,0.71327 1.68229,0.95886 2.7588,0.54576 1.07652,-0.41309 1.9573,-0.0515 1.9573,0.80359 0,0.85507 0.6,1.18385 1.33333,0.73063 0.73334,-0.45322 1.33334,-0.15322 1.33334,0.66667 0,0.81989 0.6,1.11989 1.33333,0.66666 0.73333,-0.45322 1.33333,-0.15322 1.33333,0.66667 0,0.81989 0.6,1.11989 1.33334,0.66667 0.73333,-0.45328 1.33333,-0.15328 1.33333,0.66661 0,0.81989 0.56312,1.14269 1.25139,0.71732 0.68826,-0.42537 1.84605,0.28922 2.57287,1.58797 0.72683,1.29876 1.69876,2.36138 2.15986,2.36138 1.21044,0 15.48192,13.9921 14.32089,14.04054 -0.53442,0.0223 0.0909,0.65918 1.3897,1.41529 1.29876,0.7561 2.01335,1.93785 1.58798,2.62612 -0.42537,0.68826 -0.10258,1.25138 0.71731,1.25138 0.81989,0 1.11989,0.6 0.66667,1.33334 -0.45323,0.73333 -0.15323,1.33333 0.66666,1.33333 0.81989,0 1.11989,0.6 0.66667,1.33333 -0.45322,0.73334 -0.15322,1.33334 0.66667,1.33334 0.81989,0 1.14551,0.55854 0.7236,1.2412 -0.4219,0.68266 -0.14753,1.62412 0.60973,2.09213 0.75726,0.46801 1.05726,1.36801 0.66667,2 -0.39059,0.63199 -0.0906,1.53199 0.66666,2 0.75726,0.46801 1.03164,1.40947 0.60973,2.09213 -0.42191,0.68266 -0.28789,1.9912 0.29782,2.90787 1.48536,2.32466 1.5445,23.97963 0.0709,25.94159 -0.66439,0.88455 -0.84654,2.19309 -0.40478,2.90787 0.44176,0.71479 0.18363,1.68253 -0.57363,2.15054 -0.75725,0.46801 -1.05725,1.36801 -0.66666,2 0.39059,0.63199 0.0906,1.53199 -0.66667,2 -0.75726,0.46801 -1.03163,1.40947 -0.60973,2.09213 0.42191,0.68266 0.0963,1.2412 -0.7236,1.2412 -0.81989,0 -1.11989,0.6 -0.66667,1.33334 0.45318,0.73333 0.15318,1.33333 -0.66671,1.33333 -0.81989,0 -1.11989,0.6 -0.66666,1.33333 0.45322,0.73334 0.18863,1.33334 -0.58798,1.33334 -0.77661,0 -1.26202,0.55765 -1.07869,1.23922 0.18333,0.68157 -0.86667,2.22607 -2.33333,3.43221 -1.46667,1.20614 -1.76667,1.80509 -0.66667,1.331 1.1,-0.4741 0.2,0.69575 -2,2.59965 -2.2,1.9039 -3.83513,4.0919 -3.63363,4.86222 0.2015,0.77031 -0.20262,1.04892 -0.89805,0.61913 -0.69542,-0.4298 -2.55617,1.03265 -4.13499,3.2499 -1.57881,2.21725 -3.42469,3.68889 -4.10195,3.27032 -0.67726,-0.41857 -1.23138,-0.12562 -1.23138,0.65099 0,0.77661 -0.9,1.41202 -2,1.41202 -1.1,0 -2,0.63541 -2,1.41203 0,0.77661 -0.6,1.0412 -1.33333,0.58797 -0.73334,-0.45322 -1.33334,-0.18863 -1.33334,0.58798 0,0.77661 -0.45,1.28455 -1,1.12875 -0.55,-0.15579 -2.35,0.46532 -4,1.38025 -1.65,0.91493 -3,1.26894 -3,0.78668 0,-0.48227 -0.83684,-0.18232 -1.85965,0.66653 -1.02281,0.84886 -2.37281,1.45127 -3,1.3387 -0.62719,-0.11257 -1.74035,-0.0781 -2.47368,0.0766 -3.9459,0.83246 -23.68278,0.54497 -24.2386,-0.35308 z M 948.5188,563.42497 c -2.53998,-3 -2.53998,-3 0.46002,-0.46001 1.65,1.39699 3,2.74699 3,3 0,1.067 -1.07306,0.27927 -3.46002,-2.53999 z M 585.71628,486.00074 c -0.37062,-0.59999 -1.49396,-0.7762 -2.49629,-0.39156 -1.00234,0.38463 -2.16087,0.15174 -2.5745,-0.51754 -0.41364,-0.66928 -1.63286,-0.87888 -2.70937,-0.46578 -1.07652,0.41309 -1.9573,0.0515 -1.9573,-0.80359 0,-0.85507 -0.6,-1.18385 -1.33333,-0.73063 -0.73334,0.45322 -1.33334,0.15322 -1.33334,-0.66667 0,-0.81989 -0.6,-1.11989 -1.33333,-0.66666 -0.73333,0.45322 -1.33333,0.15322 -1.33333,-0.66667 0,-0.81989 -0.6,-1.11989 -1.33334,-0.66667 -0.73333,0.45323 -1.33333,0.0886 -1.33333,-0.8102 0,-0.89883 -0.39067,-1.24357 -0.86816,-0.76608 -0.47749,0.47749 -1.72199,-0.17251 -2.76555,-1.44444 -1.23125,-1.50071 -1.57724,-1.61046 -0.9855,-0.31261 0.50153,1.1 -0.69738,0.2 -2.66424,-2 -1.96686,-2.2 -3.14455,-3.1 -2.6171,-2 0.52746,1.1 -1.52914,-0.37177 -4.57022,-3.2706 -5.72723,-5.45933 -6.71836,-6.83446 -3.86256,-5.35905 0.91666,0.47358 0.16666,-0.37767 -1.66667,-1.89167 -1.83333,-1.51399 -2.73333,-2.7843 -2,-2.82291 0.73333,-0.0386 0.27071,-0.68882 -1.02804,-1.44493 -1.29876,-0.7561 -2.01335,-1.93786 -1.58798,-2.62612 0.42537,-0.68826 0.10258,-1.25139 -0.71731,-1.25139 -0.81989,0 -1.11989,-0.6 -0.66667,-1.33333 0.45322,-0.73333 0.15322,-1.33333 -0.66667,-1.33333 -0.81989,0 -1.14551,-0.55854 -0.7236,-1.24121 0.4219,-0.68266 0.14753,-1.62412 -0.60973,-2.09213 -0.75726,-0.46801 -1.03163,-1.40947 -0.60973,-2.09213 0.42191,-0.68266 0.0675,-1.2412 -0.78757,-1.2412 -0.85507,0 -1.21668,-0.88078 -0.80358,-1.9573 0.41309,-1.07651 0.15288,-2.32701 -0.57825,-2.77888 -0.73114,-0.45186 -0.98053,-1.92058 -0.5542,-3.26382 0.42632,-1.34324 0.15073,-2.82815 -0.61243,-3.29981 -0.76317,-0.47166 -1.38757,-4.38675 -1.38757,-8.70019 0,-4.31344 0.6244,-8.22853 1.38757,-8.70019 0.76316,-0.47166 1.03875,-1.95657 0.61243,-3.29981 -0.42633,-1.34324 -0.17694,-2.81196 0.5542,-3.26382 0.73113,-0.45187 0.99134,-1.70237 0.57825,-2.77888 -0.4131,-1.07652 -0.10573,-1.9573 0.68305,-1.9573 0.78877,0 1.08877,-0.9 0.66667,-2 -0.42211,-1.1 -0.0679,-2 0.7872,-2 0.85507,0 1.18385,-0.6 0.73063,-1.33333 -0.45323,-0.73334 -0.15323,-1.33334 0.66666,-1.33334 0.81989,0 1.11989,-0.6 0.66667,-1.33333 -0.45322,-0.73333 -0.0886,-1.33333 0.8102,-1.33333 0.89883,0 1.24357,-0.39068 0.76608,-0.86817 -0.47749,-0.47749 0.17251,-1.72198 1.44444,-2.76554 1.50071,-1.23126 1.61046,-1.57724 0.31261,-0.98551 -1.1,0.50153 -0.2,-0.69737 2,-2.66423 2.2,-1.96686 3.1,-3.14604 2,-2.62039 -1.1,0.52564 0.67493,-1.83096 3.94428,-5.23689 6.12583,-6.38174 7.49604,-7.40924 6.03554,-4.52594 -0.46433,0.91667 0.14261,0.46667 1.34875,-1 1.20614,-1.46667 2.75064,-2.51667 3.43221,-2.33333 0.68157,0.18333 1.23922,-0.19388 1.23922,-0.83824 0,-1.27244 8.03607,-4.99573 9.66667,-4.47879 0.55,0.17436 1,-0.31838 1,-1.095 0,-0.77661 0.55854,-1.06682 1.2412,-0.64491 0.68266,0.4219 1.64335,0.11641 2.13487,-0.67888 0.49152,-0.79529 1.67432,-1.14642 2.62844,-0.78028 0.95413,0.36613 2.14343,0.25703 2.64288,-0.24244 1.26251,-1.26254 26.02722,-1.3073 26.80524,-0.0484 0.34802,0.56312 1.51356,0.68586 2.59007,0.27276 1.07652,-0.4131 1.9573,-0.0227 1.9573,0.86755 0,0.891 0.89908,1.27363 2,0.85116 1.1,-0.4221 2,-0.15089 2,0.60271 0,0.7536 0.6,0.99935 1.33333,0.54613 0.73334,-0.45322 1.33334,-0.12444 1.33334,0.73063 0,0.85507 0.91361,1.20409 2.03024,0.7756 1.11737,-0.42878 3.21568,0.40636 4.66666,1.85734 1.45004,1.45004 2.64977,2.18643 2.66608,1.63643 0.0163,-0.55 1.26837,0.5 2.78237,2.33333 1.51399,1.83334 2.35973,2.43334 1.87941,1.33334 -0.48033,-1.1 4.40594,3.4 10.85836,10 6.45242,6.6 10.92693,10.8 9.94335,9.33333 -0.98357,-1.46667 0.1572,-0.56667 2.53506,2 2.37785,2.56667 3.89856,3.76667 3.37934,2.66667 -0.51922,-1.1 0.22719,-0.67552 1.65869,0.9433 1.4315,1.61881 2.97721,2.56881 3.43491,2.11111 0.45771,-0.45771 0.83219,-0.13219 0.83219,0.72336 0,0.85556 0.45,1.48451 1,1.39767 2.81779,-0.44492 4.38998,0.32089 3.52663,1.71781 -0.64824,1.04887 -0.2372,1.28099 1.25465,0.70851 1.2203,-0.46827 2.21872,-0.23482 2.21872,0.51877 0,0.7536 0.6,0.99936 1.33334,0.54613 0.73333,-0.45326 1.33333,-0.14824 1.33333,0.67779 0,0.89511 1.07735,1.15994 2.66667,0.65551 1.46666,-0.46551 2.66643,-0.35594 2.66614,0.24348 -6.2e-4,1.28302 23.13204,1.11732 25.23234,-0.18074 0.78917,-0.48773 1.99339,-0.54159 2.67605,-0.11968 0.68266,0.4219 1.62412,0.14753 2.09213,-0.60973 0.46801,-0.75726 1.40947,-1.03163 2.09213,-0.60973 0.68267,0.42191 1.24121,0.0963 1.24121,-0.7236 0,-0.81989 0.6,-1.11989 1.33333,-0.66667 0.73333,0.45322 1.33333,0.15322 1.33333,-0.66667 0,-0.81989 0.6,-1.11989 1.33334,-0.66666 0.73333,0.45322 1.33333,0.15322 1.33333,-0.66667 0,-0.81989 0.6,-1.11989 1.33333,-0.66667 0.73334,0.45323 1.33334,0.18864 1.33334,-0.58797 0,-0.77662 0.8358,-1.41203 1.85734,-1.41203 1.02155,0 2.20485,-0.90556 2.62957,-2.01236 0.42472,-1.10681 1.28129,-1.85681 1.9035,-1.66667 0.6222,0.19013 2.7873,-1.4543 4.81133,-3.6543 2.02403,-2.2 3.26112,-3.1 2.74909,-2 -0.51203,1.1 3.39127,-2.65346 8.674,-8.34101 5.28273,-5.68756 10.15749,-9.99953 10.83281,-9.58216 0.67532,0.41737 1.58649,-0.17573 2.02482,-1.318 0.43833,-1.14226 1.27122,-1.78374 1.85087,-1.4255 0.57965,0.35825 1.41254,-0.28323 1.85087,-1.4255 0.43833,-1.14227 1.4012,-1.70341 2.13971,-1.24698 0.73852,0.45642 1.34275,0.19445 1.34275,-0.58216 0,-0.77661 0.45,-1.28455 1,-1.12875 0.55,0.15579 2.35,-0.46532 4,-1.38025 1.65,-0.91493 3,-1.26894 3,-0.78668 0,0.48227 0.83685,0.18232 1.85966,-0.66653 1.02281,-0.84886 2.37281,-1.45127 3,-1.3387 0.62719,0.11257 1.44034,0.0587 1.80701,-0.11963 1.97792,-0.96219 26.66667,-0.63805 26.66667,0.35011 0,0.64429 1.2,0.79058 2.66666,0.32507 1.49531,-0.47459 2.66667,-0.2396 2.66667,0.53497 0,0.75974 0.9,1.03598 2,0.61387 1.1,-0.42211 2,-0.0679 2,0.7872 0,0.85507 0.6,1.18385 1.33333,0.73063 0.73334,-0.45322 1.33334,-0.15322 1.33334,0.66667 0,0.81989 0.69102,1.06363 1.5356,0.54165 0.84458,-0.52198 2.34458,0.15729 3.33334,1.50949 0.98875,1.35219 1.79772,1.92918 1.79772,1.28219 0,-0.64699 0.9445,-0.0117 2.09888,1.41183 1.15438,1.42349 1.68853,1.68817 1.187,0.58817 -0.50153,-1.1 0.69738,-0.2 2.66424,2 1.96686,2.2 3.1426,3.1 2.61276,2 -0.52984,-1.1 1.20341,0.0451 3.85167,2.5446 2.64826,2.49953 4.52156,5.01943 4.16289,5.59977 -0.35867,0.58034 0.58148,1.71538 2.08923,2.5223 1.50775,0.80692 2.38914,2.03702 1.95865,2.73356 -0.43048,0.69654 -0.14729,1.26644 0.62933,1.26644 0.77661,0 1.41202,0.9 1.41202,2 0,1.1 0.6,2 1.33333,2 0.73334,0 1.20587,0.45 1.05007,1 -0.1558,0.55 0.46531,2.35 1.38024,4 0.91494,1.65 1.22241,3 0.68327,3 -0.53913,0 -0.30713,0.67311 0.51556,1.4958 0.8227,0.8227 1.1785,2.3227 0.79068,3.33334 -0.38781,1.01064 -0.12704,1.83752 0.57951,1.83752 1.37473,0 1.74228,3.04299 1.77153,14.66667 0.0322,12.78238 -0.17775,14.66667 -1.63385,14.66667 -0.78227,0 -1.08432,0.88078 -0.67122,1.9573 0.41309,1.07651 0.1675,2.31797 -0.54577,2.75879 -0.71327,0.44083 -0.95165,1.36004 -0.52974,2.0427 0.4219,0.68267 0.15052,1.24121 -0.60307,1.24121 -0.7536,0 -1.02482,0.9 -0.60271,2 0.42211,1.1 0.0679,2 -0.7872,2 -0.85507,0 -1.20665,0.56312 -0.78128,1.25138 0.42537,0.68827 -0.28922,1.87002 -1.58797,2.62612 -1.29876,0.75611 -1.7967,1.39299 -1.10654,1.41529 0.69016,0.0223 0.0902,0.98503 -1.33333,2.13942 -1.4235,1.15438 -1.68818,1.67528 -0.58818,1.15754 1.1,-0.51773 -0.1,1.00419 -2.66666,3.38205 -2.56667,2.37785 -3.46667,3.52987 -2,2.56004 1.57679,-1.04265 1.06613,-0.0131 -1.24946,2.51908 -4.13228,4.51878 -5.4639,5.3765 -4.06098,2.61574 0.46581,-0.91666 -0.47811,-0.16666 -2.09762,1.66667 -1.61951,1.83333 -3.48191,3.17777 -4.13868,2.98763 -0.65677,-0.19013 -1.54031,0.55642 -1.96341,1.65901 -0.4231,1.10259 -1.30641,1.67275 -1.9629,1.26701 -0.65649,-0.40573 -1.19362,-0.0669 -1.19362,0.75302 0,0.81989 -0.6,1.11989 -1.33333,0.66666 -0.73334,-0.45322 -1.33334,-0.15322 -1.33334,0.66667 0,0.81989 -0.6,1.11989 -1.33333,0.66667 -0.73333,-0.45323 -1.33333,-0.15323 -1.33333,0.66666 0,0.81989 -0.55854,1.14552 -1.24121,0.72361 -0.68266,-0.42191 -1.62412,-0.14753 -2.09213,0.60973 -0.46801,0.75725 -1.36801,1.05725 -2,0.66666 -0.63199,-0.39059 -1.53199,-0.0906 -2,0.66667 -0.46801,0.75726 -1.40947,1.03163 -2.09213,0.60973 -0.68266,-0.42191 -1.94885,-0.32976 -2.81376,0.20479 -2.14954,1.32849 -23.85643,1.44398 -24.66732,0.13124 -0.35816,-0.57983 -1.80071,-0.68939 -3.20566,-0.24348 -1.40495,0.44591 -2.55446,0.18915 -2.55446,-0.57058 0,-0.75974 -0.9,-1.03598 -2,-0.61387 -1.1,0.42211 -2,0.0679 -2,-0.7872 0,-0.85507 -0.6,-1.18385 -1.33333,-0.73063 -0.73334,0.45322 -1.33334,0.20747 -1.33334,-0.54613 0,-0.7536 -0.89494,-1.02676 -1.98876,-0.60702 -1.13389,0.43512 -2.34021,-0.15271 -2.80638,-1.36752 -0.44969,-1.17187 -1.35475,-1.79872 -2.01124,-1.39298 -0.65649,0.40573 -1.19362,0.10229 -1.19362,-0.67433 0,-0.77661 -0.55765,-1.26202 -1.23922,-1.07869 -0.68157,0.18334 -2.22607,-0.86666 -3.43221,-2.33333 -1.20614,-1.46667 -1.80839,-1.76667 -1.33833,-0.66667 0.47006,1.1 -4.08526,-3.1 -10.12294,-9.33333 -6.03768,-6.23333 -10.53669,-10.43333 -9.9978,-9.33333 0.53889,1.1 -0.94039,-0.1 -3.2873,-2.66667 -2.34691,-2.56667 -3.84229,-3.76667 -3.32307,-2.66667 0.51922,1.1 -0.22719,0.67552 -1.65869,-0.9433 -1.4315,-1.61881 -2.97721,-2.56881 -3.43491,-2.11111 -0.45771,0.45771 -0.83219,0.13219 -0.83219,-0.72336 0,-0.85556 -0.45,-1.48451 -1,-1.39767 -2.64687,0.41793 -4.40927,-0.28967 -3.67611,-1.47595 0.46712,-0.75581 -0.0681,-0.97934 -1.25464,-0.52402 -1.14101,0.43785 -2.06925,0.0966 -2.06925,-0.76062 0,-0.85508 -0.6,-1.18386 -1.33334,-0.73063 -0.73333,0.45322 -1.33333,0.12444 -1.33333,-0.73063 0,-0.85507 -0.84134,-1.23182 -1.86965,-0.83723 -1.0283,0.3946 -2.2033,0.38379 -2.61111,-0.024 -1.06856,-1.06856 -25.61943,-0.91561 -27.37689,0.17056 -0.81163,0.50161 -2.02444,0.57287 -2.69514,0.15836 -0.6707,-0.41452 -1.4207,-0.20489 -1.66666,0.46583 -0.24597,0.67073 -1.64722,1.42447 -3.11388,1.67498 -1.46667,0.25051 -3.80754,1.48472 -5.20193,2.7427 -1.39439,1.25797 -2.98152,2.01142 -3.52695,1.67432 -0.54543,-0.33709 -1.33787,0.28922 -1.76098,1.39181 -0.4231,1.10259 -1.30663,1.84914 -1.9634,1.65901 -0.65677,-0.19014 -2.51918,1.1543 -4.13869,2.98763 -1.6195,1.83333 -2.47896,2.43333 -1.90991,1.33333 0.56906,-1.1 -3.93051,3.1 -9.99905,9.33334 -6.06853,6.23332 -10.6427,10.43332 -10.16481,9.33332 0.47789,-1.1 -0.323,-0.65 -1.77976,1 -1.45675,1.65 -3.30246,3 -4.10158,3 -0.79912,0 -1.45294,0.7 -1.45294,1.55556 0,0.85555 -0.37143,1.18412 -0.8254,0.73015 -0.45397,-0.45396 -1.70234,0.0516 -2.77416,1.12337 -1.07182,1.07182 -2.50039,1.60784 -3.1746,1.19115 -0.67422,-0.41668 -1.22584,-0.0868 -1.22584,0.7331 0,0.81989 -0.55854,1.14552 -1.24121,0.72361 -0.68266,-0.42191 -1.62412,-0.14753 -2.09213,0.60973 -0.46801,0.75725 -1.36801,1.05725 -2,0.66666 -0.63199,-0.39059 -1.53199,-0.0906 -2,0.66667 -0.46801,0.75726 -1.40947,1.03163 -2.09213,0.60973 -0.68266,-0.42191 -1.94885,-0.32976 -2.81376,0.20479 -2.18477,1.35026 -23.86302,1.43331 -24.68998,0.0946 z"
       id="path1" />
  </g>
</svg>
